HIERARCHY
ROOT Hips
{
	OFFSET 0.000000 0.000000 0.000000
	CHANNELS 6 Xposition Yposition Zposition Zrotation Yrotation Xrotation 
	JOINT LHipJoint
	{
		OFFSET 0.000000 0.000000 0.000000
		CHANNELS 3 Zrotation Yrotation Xrotation
		JOINT LeftUpLeg
		{
			OFFSET 1.363060 -1.794630 0.839290
			CHANNELS 3 Zrotation Yrotation Xrotation
			JOINT LeftLeg
			{
				OFFSET 2.448110 -6.726130 0.000000
				CHANNELS 3 Zrotation Yrotation Xrotation
				JOINT LeftFoot
				{
					OFFSET 2.562200 -7.039590 0.000000
					CHANNELS 3 Zrotation Yrotation Xrotation
					JOINT LeftToeBase
					{
						OFFSET 0.157640 -0.433110 2.322550
						CHANNELS 3 Zrotation Yrotation Xrotation
						End Site
						{
							OFFSET 0.000000 0.000000 0.000000
						}
					}
				}
			}
		}
	}
	JOINT RHipJoint
	{
		OFFSET 0.000000 0.000000 0.000000
		CHANNELS 3 Zrotation Yrotation Xrotation
		JOINT RightUpLeg
		{
			OFFSET -1.305520 -1.794630 0.839290
			CHANNELS 3 Zrotation Yrotation Xrotation
			JOINT RightLeg
			{
				OFFSET -2.542530 -6.985550 0.000000
				CHANNELS 3 Zrotation Yrotation Xrotation
				JOINT RightFoot
				{
					OFFSET -2.568260 -7.056230 0.000000
					CHANNELS 3 Zrotation Yrotation Xrotation
					JOINT RightToeBase
					{
						OFFSET -0.164730 -0.452590 2.363150
						CHANNELS 3 Zrotation Yrotation Xrotation
						End Site
						{
							OFFSET 0.000000 0.000000 0.000000
						}
					}
				}
			}
		}
	}
	JOINT LowerBack
	{
		OFFSET 0.000000 0.000000 0.000000
		CHANNELS 3 Zrotation Yrotation Xrotation
		JOINT Spine
		{
			OFFSET 0.028270 2.035590 -0.193380
			CHANNELS 3 Zrotation Yrotation Xrotation
			JOINT Spine1
			{
				OFFSET 0.056720 2.048850 -0.042750
				CHANNELS 3 Zrotation Yrotation Xrotation
				JOINT Neck
				{
					OFFSET 0.000000 0.000000 0.000000
					CHANNELS 3 Zrotation Yrotation Xrotation
					JOINT Neck1
					{
						OFFSET -0.054170 1.746240 0.172020
						CHANNELS 3 Zrotation Yrotation Xrotation
						JOINT Head
						{
							OFFSET 0.104070 1.761360 -0.123970
							CHANNELS 3 Zrotation Yrotation Xrotation
							End Site
							{
								OFFSET 0.000000 0.000000 0.000000
							}
						}
					}
				}
				JOINT LeftShoulder
				{
					OFFSET 0.000000 0.000000 0.000000
					CHANNELS 3 Zrotation Yrotation Xrotation
					JOINT LeftArm
					{
						OFFSET 3.362410 1.200890 -0.311210
						CHANNELS 3 Zrotation Yrotation Xrotation
						JOINT LeftForeArm
						{
							OFFSET 4.983000 -0.000000 -0.000000
							CHANNELS 3 Zrotation Yrotation Xrotation
							JOINT LeftHand
							{
								OFFSET 3.483560 -0.000000 -0.000000
								CHANNELS 3 Zrotation Yrotation Xrotation
								JOINT LeftFingerBase
								{
									OFFSET 0.000000 0.000000 0.000000
									CHANNELS 3 Zrotation Yrotation Xrotation
									JOINT LeftHandIndex1
									{
										OFFSET 0.715260 -0.000000 -0.000000
										CHANNELS 3 Zrotation Yrotation Xrotation
										End Site
										{
											OFFSET 0.000000 0.000000 0.000000
										}
									}
								}
								JOINT LThumb
								{
									OFFSET 0.000000 0.000000 0.000000
									CHANNELS 3 Zrotation Yrotation Xrotation
									End Site
									{
										OFFSET 0.000000 0.000000 0.000000
									}
								}
							}
						}
					}
				}
				JOINT RightShoulder
				{
					OFFSET 0.000000 0.000000 0.000000
					CHANNELS 3 Zrotation Yrotation Xrotation
					JOINT RightArm
					{
						OFFSET -3.136600 1.374050 -0.404650
						CHANNELS 3 Zrotation Yrotation Xrotation
						JOINT RightForeArm
						{
							OFFSET -5.241900 -0.000000 -0.000000
							CHANNELS 3 Zrotation Yrotation Xrotation
							JOINT RightHand
							{
								OFFSET -3.444170 -0.000000 -0.000000
								CHANNELS 3 Zrotation Yrotation Xrotation
								JOINT RightFingerBase
								{
									OFFSET 0.000000 0.000000 0.000000
									CHANNELS 3 Zrotation Yrotation Xrotation
									JOINT RightHandIndex1
									{
										OFFSET -0.622530 -0.000000 -0.000000
										CHANNELS 3 Zrotation Yrotation Xrotation
										End Site
										{
											OFFSET 0.000000 0.000000 0.000000
										}
									}
								}
								JOINT RThumb
								{
									OFFSET 0.000000 0.000000 0.000000
									CHANNELS 3 Zrotation Yrotation Xrotation
									End Site
									{
										OFFSET 0.000000 0.000000 0.000000
									}
								}
							}
						}
					}
				}
			}
		}
	}
}
MOTION
Frames: 8
Frame Time: 0.008333
9.842474 17.572892 35.350683 -178.250258 -1.522443 -146.282501 9.912014 -0.219759 -2.690394 -12.511937 -26.374421 -40.392218 0.312120 13.652306 29.559959 1.393166 -2.735838 -26.745963 4.379200 -12.648600 -38.067000 -13.927552 -1.490345 -0.860412 23.373810 27.351674 -39.272973 0.327602 -13.175920 27.496423 -1.671495 -2.855385 -29.546533 -2.273000 9.412900 -27.095800 1.019316 -0.181556 -8.287921 1.543421 -1.054555 -4.605880 0.119541 -0.530664 7.706062 -9.469549 0.034878 -2.063393 10.874957 -0.334707 -9.846133 2.182800 -0.035500 -5.901600 17.519111 -1.135844 0.065585 -91.617595 15.394445 40.054060 17.025345 -22.900822 -4.831265 -1.644178 0.470275 -4.739418 20.021079 -13.478962 -5.472100 -7.125000 0.000000 0.000000 -3.972000 15.001300 2.815400 -11.198335 -1.808864 -0.150661 89.387225 -18.378404 7.258476 -9.580404 19.668451 -2.291928 0.995749 3.871293 6.824629 -10.029221 -44.246732 7.916500 7.125000 0.000000 0.000000 51.745300 -73.091500 -36.940800 
9.845326 17.525068 35.371633 -178.300012 -1.503612 -145.807859 9.982441 -0.240888 -2.756825 -12.028213 -26.448136 -42.000538 0.578607 14.303115 31.165566 1.422802 -3.198111 -27.284873 4.502400 -12.800600 -38.626500 -13.942034 -1.474889 -0.873614 22.731395 27.633370 -40.799987 0.139632 -13.808194 28.955714 -1.740719 -2.940033 -30.121401 -2.387300 9.630100 -27.786900 1.051880 -0.232024 -8.259179 1.541128 -1.094943 -4.472373 0.067078 -0.544958 8.164247 -9.363406 -0.086284 -2.095776 10.759656 -0.358221 -10.489792 2.142200 -0.017000 -6.154900 17.544903 -1.121762 0.075891 -91.461812 15.564114 40.413519 17.173960 -23.139269 -4.922696 -1.665855 0.461731 -5.085359 20.201258 -13.655644 -5.594900 -7.125000 0.000000 0.000000 -3.844900 14.792700 2.742000 -11.192515 -1.855726 -0.128894 89.345871 -18.260430 6.771965 -9.481859 19.537642 -2.252361 0.979787 3.837886 7.035490 -9.695652 -43.739446 7.581200 7.125000 0.000000 0.000000 50.582800 -72.659100 -35.582800 
9.847519 17.472417 35.391268 -178.295550 -1.432325 -145.427405 10.040227 -0.247549 -2.792994 -11.551595 -26.438916 -43.527932 0.865657 14.924326 32.753664 1.434745 -3.824887 -27.766858 4.264500 -12.504300 -37.540300 -13.948480 -1.469566 -0.872626 22.208243 27.759570 -42.341438 -0.098963 -14.475782 30.567947 -1.827306 -2.771758 -30.669423 -2.462100 9.768700 -28.231000 1.133684 -0.286521 -7.641917 1.553088 -1.143428 -4.480323 0.069099 -0.551042 7.836766 -9.400741 -0.198370 -2.078056 10.733351 -0.447918 -10.833639 2.156000 -0.041500 -6.257900 17.598903 -1.096626 0.055643 -91.487294 16.322137 40.621131 17.429293 -23.493375 -5.079305 -1.639451 0.420351 -5.274314 20.006212 -13.380585 -5.415400 -7.125000 0.000000 0.000000 -3.979700 15.145800 2.808600 -11.214147 -1.852913 -0.144716 89.104216 -18.777717 6.973135 -9.540668 19.652418 -2.279117 0.948143 3.854157 6.795027 -9.483406 -43.870967 7.426500 7.125000 0.000000 0.000000 51.166300 -72.658500 -36.048000 
9.847081 17.397061 35.409476 -178.283073 -1.324959 -144.626220 10.114558 -0.253892 -2.836943 -10.886653 -26.412334 -45.502082 1.152490 15.563054 34.316353 1.469622 -4.176142 -28.250710 4.189400 -12.408300 -37.192100 -13.958771 -1.484501 -0.860892 21.527412 27.758926 -44.437249 -0.334439 -15.147665 32.105295 -1.885117 -2.538120 -31.004079 -2.617900 10.049200 -29.136200 1.151498 -0.236892 -7.532763 1.563482 -1.088235 -4.537211 0.139997 -0.513608 7.591078 -9.397013 -0.296026 -2.069799 10.663470 -0.527717 -11.126603 2.138300 -0.065200 -6.349300 17.662735 -1.066371 0.029257 -91.465880 17.064310 41.073718 17.712570 -23.891740 -5.258658 -1.615920 0.405879 -5.489764 19.801151 -13.397716 -5.355800 -7.125000 0.000000 0.000000 -4.136900 15.161100 2.918700 -11.232604 -1.863124 -0.168610 88.903367 -19.446297 7.251397 -9.660869 19.869196 -2.329577 0.909661 3.895932 6.287672 -9.461294 -44.327872 7.460700 7.125000 0.000000 0.000000 52.534700 -72.920300 -37.409900 
9.851139 17.323680 35.426039 -178.313842 -1.290107 -144.029343 10.185173 -0.239046 -2.882404 -10.488239 -26.314782 -47.191608 1.454938 16.169975 35.869500 1.541032 -4.114358 -28.659855 4.638300 -12.964500 -39.235600 -13.955483 -1.504809 -0.874061 21.106421 27.538324 -46.164821 -0.563675 -15.721696 33.475983 -1.944804 -2.323502 -31.317209 -2.832900 10.419600 -30.346400 1.197768 -0.192099 -7.361317 1.525133 -1.011401 -4.508361 0.032397 -0.466601 7.594892 -9.279442 -0.430993 -2.053047 10.610246 -0.636532 -11.478169 2.113600 -0.103200 -6.481000 17.713598 -1.055011 0.007602 -91.194168 17.535095 41.615209 17.959054 -24.234382 -5.410953 -1.614909 0.413802 -5.800111 19.788169 -13.673325 -5.460000 -7.125000 0.000000 0.000000 -4.162600 14.855000 2.964200 -11.260958 -1.875053 -0.156415 89.096508 -19.657576 6.754025 -9.630900 19.851362 -2.320973 0.916836 3.901974 6.324301 -9.585873 -44.460598 7.574200 7.125000 0.000000 0.000000 52.818500 -73.042800 -37.762900 
9.857172 17.246788 35.445454 -178.477355 -1.119956 -143.552683 10.244333 -0.213130 -2.906944 -10.309119 -26.182788 -48.793500 1.782575 16.751249 37.432716 1.589269 -4.395865 -29.097301 4.848500 -13.211100 -40.163900 -13.945090 -1.512483 -0.879344 20.404131 27.485958 -47.864001 -0.870001 -16.371656 35.123102 -2.048173 -1.969216 -31.825993 -2.857000 10.460000 -30.479400 0.965808 -0.194642 -6.768171 1.490966 -0.949644 -4.553050 0.102672 -0.432104 7.143177 -9.256709 -0.516466 -2.019295 10.562351 -0.717574 -11.702170 2.096500 -0.134700 -6.540100 17.769595 -1.046915 -0.026462 -91.053690 18.240014 42.135482 18.217227 -24.566396 -5.567913 -1.609365 0.395550 -6.160407 19.790925 -13.642922 -5.444200 -7.125000 0.000000 0.000000 -4.163800 14.896700 2.961400 -11.289049 -1.859541 -0.164305 89.179550 -20.112315 6.348517 -9.637173 19.866957 -2.325377 0.939603 3.907533 6.546879 -9.711044 -44.601026 7.691700 7.125000 0.000000 0.000000 53.134200 -73.171300 -38.149200 
9.862108 17.166934 35.464649 -178.608472 -0.943599 -143.197869 10.295007 -0.192910 -2.946101 -10.115958 -26.057940 -50.177628 2.125789 17.279881 38.948865 1.583829 -5.305205 -29.552797 4.547100 -12.854800 -38.827500 -13.939967 -1.518526 -0.903587 19.751773 27.512082 -49.332657 -1.210012 -17.001031 36.796099 -2.152196 -1.551960 -32.262753 -2.783900 10.336800 -30.074300 0.698754 -0.182875 -6.321670 1.467163 -0.863923 -4.481009 0.214084 -0.387841 7.151536 -9.143208 -0.698902 -1.837538 10.554760 -0.863592 -12.469472 2.098600 -0.182500 -6.858000 17.812405 -1.068254 -0.031064 -90.950092 18.580840 42.476259 18.463723 -24.905584 -5.722277 -1.606251 0.386587 -6.452995 19.766065 -13.752074 -5.476000 -7.125000 0.000000 0.000000 -4.189100 14.786300 2.989400 -11.299529 -1.893394 -0.159817 89.186821 -20.299885 6.240568 -9.680605 19.935732 -2.340867 0.932736 3.915011 6.579982 -9.626382 -44.710174 7.633600 7.125000 0.000000 0.000000 53.546200 -73.199100 -38.514400 
9.863644 17.068105 35.483296 -178.581937 -0.719485 -142.394592 10.374282 -0.170291 -3.003331 -9.500634 -25.851177 -52.204564 2.517640 17.895036 40.644405 1.608388 -5.928515 -30.030583 4.442000 -12.726500 -38.353000 -13.945554 -1.551315 -0.900626 18.932180 27.704716 -51.489424 -1.578546 -17.701456 38.573422 -2.236097 -1.200980 -32.597868 -2.790900 10.348500 -30.112900 0.623767 -0.081503 -6.414526 1.431331 -0.721791 -4.475270 0.196360 -0.312867 7.207524 -8.941837 -0.899804 -1.747106 10.563447 -1.035962 -13.069782 2.085900 -0.253200 -7.101900 17.870458 -1.061775 -0.052285 -90.822458 19.131792 42.760492 18.775154 -25.330070 -5.919136 -1.597742 0.379785 -6.692286 19.694755 -13.895121 -5.506000 -7.125000 0.000000 0.000000 -4.251200 14.645300 3.046800 -11.312205 -1.938036 -0.159439 89.266375 -20.523373 5.965948 -9.634818 19.885207 -2.321739 0.928384 3.897763 6.720247 -9.499569 -44.454650 7.497200 7.125000 0.000000 0.000000 52.892700 -73.004200 -37.784700 
